<svg xmlns="http://www.w3.org/2000/svg" width="1600" height="760" viewBox="0 0 1600 760" role="img" aria-labelledby="title desc">
<title id="title">Own My Purpose — connected business systems</title><desc id="desc">A refined arrangement of operational dashboards, software workflows and connected application screens in Own My Purpose charcoal and warm amber.</desc>
<defs><linearGradient id="bg" x2="1" y2="1"><stop stop-color="#111719"/><stop offset="1" stop-color="#263135"/></linearGradient><linearGradient id="panel" x1="0" y1="0" x2="1" y2="1"><stop stop-color="#303D40"/><stop offset="1" stop-color="#1C2427"/></linearGradient><radialGradient id="light"><stop stop-color="#DA9E32" stop-opacity=".24"/><stop offset="1" stop-color="#DA9E32" stop-opacity="0"/></radialGradient><pattern id="grid" width="52" height="52" patternUnits="userSpaceOnUse"><path d="M52 0H0V52" stroke="#E8BD7B" stroke-opacity=".06" fill="none"/></pattern><filter id="shadow"><feDropShadow dx="0" dy="18" stdDeviation="21" flood-opacity=".44"/></filter></defs>
<rect width="1600" height="760" fill="url(#bg)"/><rect width="1600" height="760" fill="url(#grid)"/><circle cx="1155" cy="323" r="580" fill="url(#light)"/>
<path d="M0 603C310 562 498 590 728 485S1215 342 1600 305" stroke="#D7A349" stroke-opacity=".20" stroke-width="1.5" fill="none"/>
<path d="M0 673C310 632 502 653 758 566S1244 439 1600 406" stroke="#D7A349" stroke-opacity=".11" stroke-width="1.5" fill="none"/>
<g stroke="#E4B563" stroke-opacity=".54" fill="none"><path d="M607 205h95l83 93"/><path d="M546 409h147l79 61"/><path d="M665 602h99"/></g><g fill="#E1A648"><circle cx="607" cy="205" r="4"/><circle cx="546" cy="409" r="4"/><circle cx="665" cy="602" r="4"/></g>
<g filter="url(#shadow)"><rect x="802" y="86" width="691" height="553" rx="17" fill="#10191C" stroke="#82928D" stroke-opacity=".65" stroke-width="2"/><rect x="820" y="105" width="655" height="516" rx="9" fill="url(#panel)"/><path d="M820 151h655" stroke="#647A79" stroke-opacity=".48"/><circle cx="849" cy="129" r="5" fill="#E7AD4C"/><circle cx="867" cy="129" r="5" fill="#6D8180"/><circle cx="885" cy="129" r="5" fill="#6D8180"/><text x="918" y="135" fill="#DEE3DD" font-family="Arial,sans-serif" font-size="12" font-weight="700" letter-spacing="2.4">BUSINESS SYSTEMS</text>
<rect x="841" y="178" width="144" height="419" rx="6" fill="#1A2427" stroke="#637371" stroke-opacity=".5"/><text x="858" y="208" fill="#F3C471" font-family="Arial,sans-serif" font-size="12" font-weight="700" letter-spacing="1.7">WORKSPACE</text><g stroke="#72827F" stroke-linecap="round" stroke-width="7" opacity=".55"><path d="M858 242h103"/><path d="M858 279h77"/><path d="M858 316h94"/><path d="M858 353h63"/><path d="M858 480h100"/><path d="M858 519h74"/></g><rect x="853" y="391" width="120" height="43" rx="5" fill="#DBA536"/><text x="913" y="417" text-anchor="middle" fill="#1B2525" font-family="Arial,sans-serif" font-size="11" font-weight="800">WORKFLOW</text>
<text x="1021" y="215" fill="#F1F0E9" font-family="Arial,sans-serif" font-size="30" font-weight="700">Operations overview</text><text x="1021" y="241" fill="#ADBAB6" font-family="Arial,sans-serif" font-size="13">Connected work. Clear decisions. Measurable progress.</text>
<g font-family="Arial,sans-serif"><rect x="1021" y="267" width="134" height="113" rx="8" fill="#293638" stroke="#6B807A" stroke-opacity=".6"/><text x="1035" y="293" fill="#C6D2CE" font-size="11">WORKFLOWS</text><text x="1035" y="351" fill="#F4D098" font-size="36" font-weight="700">24</text><rect x="1167" y="267" width="134" height="113" rx="8" fill="#293638" stroke="#6B807A" stroke-opacity=".6"/><text x="1181" y="293" fill="#C6D2CE" font-size="11">AUTOMATIONS</text><text x="1181" y="351" fill="#F4D098" font-size="36" font-weight="700">18</text><rect x="1313" y="267" width="141" height="113" rx="8" fill="#293638" stroke="#6B807A" stroke-opacity=".6"/><text x="1327" y="293" fill="#C6D2CE" font-size="11">SYSTEM STATUS</text><text x="1327" y="343" fill="#F4D098" font-size="18" font-weight="700">CONNECTED</text></g>
<rect x="1021" y="398" width="433" height="197" rx="8" fill="#222D30" stroke="#6B807A" stroke-opacity=".6"/><text x="1043" y="432" fill="#D7E0DA" font-family="Arial,sans-serif" font-weight="700" font-size="13">ACTIVITY ACROSS SYSTEMS</text><g stroke="#72817A" stroke-opacity=".27"><path d="M1043 462h382"/><path d="M1043 502h382"/><path d="M1043 542h382"/></g><path d="M1043 560l48-21 50 3 53-44 40 12 49-44 45 11 47-51 50 7" stroke="#F0BB5B" stroke-width="4" fill="none" stroke-linecap="round" stroke-linejoin="round"/><circle cx="1425" cy="433" r="5" fill="#F0BB5B"/></g>
<g filter="url(#shadow)"><rect x="672" y="375" width="219" height="300" rx="29" fill="#0C1517" stroke="#97A9A2" stroke-width="2"/><rect x="685" y="392" width="193" height="267" rx="16" fill="#F8F5EF"/><rect x="750" y="403" width="61" height="6" rx="3" fill="#81867F"/><text x="703" y="445" fill="#16191B" font-family="Arial,sans-serif" font-size="19" font-weight="800">Daily focus</text><text x="703" y="465" fill="#71756E" font-family="Arial,sans-serif" font-size="10">Your work, clearly organized.</text><rect x="700" y="493" width="163" height="51" rx="8" fill="#F0E4CE"/><circle cx="716" cy="519" r="6" fill="#DEA52F"/><path d="M732 512h114M732 523h86" stroke="#726B60" stroke-width="4" stroke-linecap="round" opacity=".7"/><rect x="700" y="556" width="163" height="51" rx="8" fill="#E8EBE7"/><circle cx="716" cy="581" r="6" fill="#548377"/><path d="M732 575h114M732 586h95" stroke="#726B60" stroke-width="4" stroke-linecap="round" opacity=".55"/></g>
</svg>